<?xml version="1.0" encoding="UTF-8"?>
<svg id="Layer_1" data-name="Layer 1" xmlns="http://www.w3.org/2000/svg" viewBox="0 0 1366 768">
  <defs>
    <style>
      .cls-1 {
        font-family: SourceSansRoman-Bold, 'Source Sans Variable';
        font-size: 66.94px;
        font-variation-settings: 'wght' 700;
        font-weight: 700;
      }

      .cls-1, .cls-2 {
        fill: #2b2929;
      }

      .cls-2 {
        stroke-width: 0px;
      }

      .cls-3 {
        letter-spacing: .36em;
      }

      .cls-4 {
        letter-spacing: .36em;
      }

      .cls-5 {
        letter-spacing: .36em;
      }

      .cls-6 {
        letter-spacing: .33em;
      }
    </style>
  </defs>
  <g>
    <path class="cls-2" d="M961.61,282.89v126.01c0,8.41,5.88,15.43,13.75,17.2v.03h-53.26c7.97-1.68,13.96-8.76,13.96-17.24v-126.32c0-8.69-6.26-15.9-14.54-17.34h53.84v.44c-7.87,1.78-13.75,8.79-13.75,17.2Z"/>
    <path class="cls-2" d="M789.63,282.89v126.01c0,8.41,5.88,15.43,13.75,17.2v.03h-53.26c7.97-1.68,13.96-8.76,13.96-17.24v-126.32c0-8.69-6.26-15.9-14.54-17.34h53.84v.44c-7.87,1.78-13.75,8.79-13.75,17.2Z"/>
    <path class="cls-2" d="M636.74,426.11l-8.62.03h-47.3c7.97-1.68,13.96-8.76,13.96-17.24v-126.32c0-8.69-6.26-15.9-14.54-17.34h42.75v143.66c0,8.41,5.88,15.43,13.75,17.2Z"/>
    <path class="cls-2" d="M290.32,265.24v160.9h-42.82c7.97-1.68,13.96-8.76,13.96-17.24v-126.32c0-8.69-6.26-15.9-14.54-17.34h43.4Z"/>
    <path class="cls-2" d="M301.3,268.02c5.45-2.77,17.55-6.16,28.94-6.16,32.63,0,72.96,26.06,72.96,83.73,0,66.08-53.1,82.96-74.75,82.96-14.01,0-27.14-6.31-27.14-6.31,21.86-1.54,48.08-3.67,64.03-39.1,14.62-32.48,5.23-78.19-10.77-94.81-18.73-19.45-41.56-20.32-53.26-20.32Z"/>
    <path class="cls-2" d="M460.45,426.55h-60.95c9.73-3.88,21.93-12.61,31.37-34.84,13.93-32.82,22.58-53.2,33.85-79.74-13.89,58.45-20.89,85.89-21.91,94.88-.07.55-.07,1.09.03,1.64-.03.14-.03.27-.03.41,0,9.75,7.9,17.65,17.65,17.65Z"/>
    <path class="cls-2" d="M471.08,296.98l15.56-36.66s49.75,126.01,54.26,137.09c4.51,11.08,12.57,26.73,26.06,29.14-19.5.41-43.82,5.64-56.33-26.71-14.4-37.22-39.55-102.86-39.55-102.86Z"/>
    <rect class="cls-2" x="461.89" y="362.93" width="41.46" height="6.33"/>
    <path class="cls-2" d="M631.82,273.04c8.62-7.8,20.93-10.67,28.73-10.67,10.26,0,45.66,2.53,48.02,42.69,2.05,34.89-40.63,46.79-40.63,46.79,32.63,48.84,44.74,61.57,68.13,74.72-16.24,0-34.24.88-42.82-2.89-10.26-4.51-21.82-20.11-30.65-32.43-8.82-12.31-28.53-41.46-28.53-41.46,25.04.21,41.65-13.2,43.51-39.81,1.85-26.47-17.24-43.3-45.76-36.94Z"/>
    <path class="cls-2" d="M824.62,265.24h64.03c-13.24,3.08-29.24,23.09-36.32,30.48s-28.94,32.94-28.94,32.94c0,0,54.49,70.8,57.26,74.5,2.77,3.69,12.93,15.29,26.78,23.4-19.6,0-35.4-.46-42.38-4.72-6.98-4.26-11.03-4.82-27.5-26.06-16.47-21.24-39.71-51.25-39.71-51.25,0,0,32.63-36.79,36.32-41.25s10.47-11.24,10.47-21.7-10.93-16.47-20.01-16.32Z"/>
    <path class="cls-2" d="M1108.55,321.68c0-22.78,0-46.18,0-46.18-8.21-8.62-15.19-10.47-29.14-10.26-13.96.21-24.42,10.26-24.42,10.26,26.06-.41,45.15,10.67,53.56,46.18Z"/>
    <path class="cls-2" d="M1006.14,370.1v46.18c8.21,8.62,18.26,10.28,29.14,10.26,13.96-.02,32.01-12.5,32.01-12.5-48.59-.87-53.77-30.58-61.16-43.93Z"/>
    <path class="cls-2" d="M1054.99,262.78c-33.96,0-53.67,19.09-53.67,42.17s16.01,37.25,29.55,43.4,35.09,15.7,41.56,19.7c6.46,4,19.09,10.16,19.09,25.24s-7.29,29.11-25.86,33.23c31.6.01,42.16-7.96,49.56-22.15,5.62-10.77,5.85-32.63-4.31-46.48-10.16-13.85-33.86-21.86-46.18-28.32-12.31-6.46-36.32-16.93-36.32-32.63s8.21-31.71,26.58-34.17Z"/>
  </g>
  <text class="cls-1" transform="translate(340.68 506.4)"><tspan class="cls-5" x="0" y="0">SH</tspan><tspan class="cls-4" x="131.21" y="0">A</tspan><tspan class="cls-5" x="193.47" y="0">DE IT </tspan><tspan class="cls-6" x="503.42" y="0">L</tspan><tspan class="cls-3" x="560.12" y="0">O</tspan><tspan class="cls-5" x="630.21" y="0">W</tspan></text>
</svg>